<?xml version="1.0" encoding="UTF-8"?>
<svg width="64" height="64" version="1.1" viewBox="0 0 16.933 16.933" xmlns="http://www.w3.org/2000/svg">
 <g transform="translate(0 -280.07)">
  <path d="m15.35 288.95h-9.5727c-.2035 0-.36846-.16512-.36846-.3685v-.89404c0-.26941.21859-.48799.48798-.48799h10.549c.26941 0 .48795-.21856.48795-.48797v-5.6121c0-.26941-.21859-.48798-.48795-.48798h-14.159c-1.2625 0-2.286 1.0235-2.286 2.286v6.3734c0 .8954.7257 1.6211 1.6211 1.6211h10.867c.20323 0 .36843.16499.36843.36844v.89411c0 .26941-.21859.48794-.48798.48794h-11.881c-.26941 0-.48798.2186-.48798.48796v2.8302c0 .26941.21859.48803.48798.48803h14.159c1.2625 0 2.286-1.0235 2.286-2.2861v-3.6291c0-.87428-.70916-1.5835-1.5835-1.5835z" fill="#721bff" stroke-width=".26458"/>
 </g>
</svg>
