<?xml version="1.0" encoding="UTF-8"?>
<svg xmlns="http://www.w3.org/2000/svg" version="1.1" viewBox="0 0 72.33 68.85">
  <path d="M59.52,35.87H26.65c-.7,0-1.27-.57-1.27-1.27v-3.07c0-.93.75-1.68,1.68-1.68h36.23c.93,0,1.68-.75,1.68-1.68V8.91c0-.93-.75-1.68-1.68-1.68H14.66c-4.34,0-7.85,3.51-7.85,7.85v20.79h0v1.1c0,3.07,2.49,5.57,5.57,5.57h30.52c.7,0,1.27.57,1.27,1.27v3.07c0,.93-.75,1.68-1.68,1.68H8.48c-.93,0-1.68.75-1.68,1.68v9.72c0,.93.75,1.68,1.68,1.68h48.63c4.34,0,7.85-3.51,7.85-7.85v-12.46c0-3-2.43-5.44-5.44-5.44Z" fill="#712cfb"/>
</svg>