<svg width="86" height="23" viewBox="0 0 86 23" fill="none" xmlns="http://www.w3.org/2000/svg">
<path d="M55.1521 0H80.9199C81.409 0 81.8051 0.396088 81.8051 0.885204V2.73905C81.8051 3.13034 82.1225 3.44779 82.5138 3.44779H85.1148C85.6039 3.44779 86 3.84388 86 4.33299V22.2922C86 22.6835 85.6825 23.0009 85.2912 23.0009H77.7982C77.4069 23.0009 77.0894 22.6835 77.0894 22.2922V10.2762C77.0894 9.88494 76.772 9.56749 76.3807 9.56749H73.9591C73.5678 9.56749 73.2504 9.88494 73.2504 10.2762V22.2922C73.2504 22.6835 72.9329 23.0009 72.5416 23.0009H65.1895C64.7982 23.0009 64.4808 22.6835 64.4808 22.2922V10.2762C64.4808 9.88494 64.1634 9.56749 63.7721 9.56749H61.0743C60.683 9.56749 60.3655 9.88494 60.3655 10.2762V22.2922C60.3655 22.6835 60.0481 23.0009 59.6568 23.0009H55.1531C54.7618 23.0009 54.4443 22.6835 54.4443 22.2922V0.708739C54.4434 0.317446 54.7608 0 55.1521 0Z" fill="#721BFF"/>
<path d="M49.6281 23.0009C50.7876 23.0009 51.7275 22.0611 51.7275 20.9016V2.09936C51.7266 0.93987 50.7867 0 49.6281 0H29.0632C27.9037 0 26.9639 0.93987 26.9639 2.09936V20.9025C26.9639 22.062 27.9037 23.0019 29.0632 23.0019H49.6281V23.0009ZM45.8054 10.2762V16.7633C45.8054 17.1545 45.4879 17.472 45.0966 17.472H35.5291C35.1379 17.472 34.8204 17.1545 34.8204 16.7633V10.2762C34.8204 9.88494 35.1379 9.56749 35.5291 9.56749H45.0966C45.4879 9.56749 45.8054 9.88494 45.8054 10.2762Z" fill="#721BFF"/>
<path d="M22.2941 12.1109H8.39073C8.09535 12.1109 7.85559 11.8711 7.85559 11.5757V10.2772C7.85559 9.8859 8.17303 9.56845 8.56432 9.56845H23.8852C24.2765 9.56845 24.5939 9.25101 24.5939 8.85971V0.708739C24.5939 0.317446 24.2765 0 23.8852 0H3.32023C1.48653 0 0 1.48653 0 3.32023V12.1109V12.577C0 13.8775 1.054 14.9315 2.35447 14.9315H18.1376C18.433 14.9315 18.6727 15.1712 18.6727 15.4666V16.7652C18.6727 17.1565 18.3553 17.4739 17.964 17.4739H0.708739C0.317446 17.4739 0 17.7914 0 18.1826V22.2931C0 22.6844 0.317446 23.0019 0.708739 23.0019H21.2737C23.1074 23.0019 24.5939 21.5154 24.5939 19.6816V14.4107C24.5939 13.1409 23.5639 12.1109 22.2941 12.1109Z" fill="#721BFF"/>
</svg>
